<?xml version="1.0" encoding="UTF-8" standalone="no"?>
<!DOCTYPE svg PUBLIC "-//W3C//DTD SVG 1.1//EN"
 "http://www.w3.org/Graphics/SVG/1.1/DTD/svg11.dtd">
<!-- Generated by graphviz version 2.44.1 (20200629.0846)
 -->
<!-- Title: g Pages: 1 -->
<svg width="517pt" height="712pt"
 viewBox="0.00 0.00 517.00 711.60" xmlns="http://www.w3.org/2000/svg" xmlns:xlink="http://www.w3.org/1999/xlink">
<g id="graph0" class="graph" transform="scale(1 1) rotate(0) translate(4 707.6)">
<title>g</title>
<polygon fill="white" stroke="transparent" points="-4,4 -4,-707.6 513,-707.6 513,4 -4,4"/>
<g id="clust1" class="cluster">
<title>cluster_1355179737</title>
<polygon fill="#ececec" stroke="black" points="49,-8 49,-194.8 225,-194.8 225,-8 49,-8"/>
<text text-anchor="middle" x="79.17" y="-178.2" font-family="Times New Roman,serif" font-size="14.00">Produto</text>
</g>
<g id="clust4" class="cluster">
<title>cluster_2374170</title>
<polygon fill="#ececec" stroke="black" points="27,-484.8 27,-695.6 273,-695.6 273,-484.8 27,-484.8"/>
<text text-anchor="middle" x="47.83" y="-679" font-family="Times New Roman,serif" font-size="14.00">Loja</text>
</g>
<g id="clust2" class="cluster">
<title>cluster_1531808526</title>
<polygon fill="#ececec" stroke="black" points="53,-246.4 53,-433.2 247,-433.2 247,-246.4 53,-246.4"/>
<text text-anchor="middle" x="83.16" y="-416.6" font-family="Times New Roman,serif" font-size="14.00">Usuario</text>
</g>
<g id="clust3" class="cluster">
<title>cluster_1908276379</title>
<polygon fill="#ececec" stroke="black" points="255,-246.4 255,-433.2 501,-433.2 501,-246.4 255,-246.4"/>
<text text-anchor="middle" x="282.44" y="-416.6" font-family="Times New Roman,serif" font-size="14.00">Pedido</text>
</g>
<!-- Produto1355179737 -->
<g id="node1" class="node">
<title>Produto1355179737</title>
<polygon fill="#ffffff" stroke="transparent" points="216.5,-162 57.5,-162 57.5,-16 216.5,-16 216.5,-162"/>
<text text-anchor="start" x="63" y="-144.4" font-family="Times New Roman,serif" font-size="14.00">(C)Produto</text>
<text text-anchor="start" x="63" y="-120.4" font-family="Times New Roman,serif" font-size="14.00">&#45; &#160;&#160;QuantStock: int [1]</text>
<text text-anchor="start" x="63" y="-96.4" font-family="Times New Roman,serif" font-size="14.00">&#45; &#160;&#160;custoProd: int [1]</text>
<text text-anchor="start" x="63" y="-72.4" font-family="Times New Roman,serif" font-size="14.00">&#45; &#160;&#160;id: int [1]</text>
<text text-anchor="start" x="63" y="-48.4" font-family="Times New Roman,serif" font-size="14.00">&#45; &#160;&#160;nome: String [0..1]</text>
<text text-anchor="start" x="62.67" y="-24.4" font-family="Times New Roman,serif" font-size="14.00">&#45; &#160;&#160;preco_unitario: float [1]</text>
<polygon fill="black" stroke="black" points="58,-137 58,-137 217,-137 217,-137 58,-137"/>
<polygon fill="none" stroke="black" points="57.5,-16 57.5,-162 216.5,-162 216.5,-16 57.5,-16"/>
</g>
<!-- Usuario1531808526 -->
<g id="node2" class="node">
<title>Usuario1531808526</title>
<polygon fill="#ffffff" stroke="transparent" points="238.5,-400.4 61.5,-400.4 61.5,-254.4 238.5,-254.4 238.5,-400.4"/>
<text text-anchor="start" x="67" y="-382.8" font-family="Times New Roman,serif" font-size="14.00">(C)Usuario</text>
<text text-anchor="start" x="67" y="-358.8" font-family="Times New Roman,serif" font-size="14.00">&#45; &#160;&#160;adm: boolean [1]</text>
<text text-anchor="start" x="67" y="-334.8" font-family="Times New Roman,serif" font-size="14.00">&#45; &#160;&#160;email: String [0..1]</text>
<text text-anchor="start" x="67" y="-310.8" font-family="Times New Roman,serif" font-size="14.00">&#45; &#160;&#160;id: int [1]</text>
<text text-anchor="start" x="67" y="-286.8" font-family="Times New Roman,serif" font-size="14.00">&#45; &#160;&#160;senha: String [0..1]</text>
<text text-anchor="start" x="66.86" y="-262.8" font-family="Times New Roman,serif" font-size="14.00">+ logarUsuario(senha: String)</text>
<polygon fill="black" stroke="black" points="62,-375.4 62,-375.4 239,-375.4 239,-375.4 62,-375.4"/>
<polygon fill="black" stroke="black" points="62,-279.4 62,-279.4 239,-279.4 239,-279.4 62,-279.4"/>
<polygon fill="none" stroke="black" points="61.5,-254.4 61.5,-400.4 238.5,-400.4 238.5,-254.4 61.5,-254.4"/>
</g>
<!-- Pedido1908276379 -->
<g id="node3" class="node">
<title>Pedido1908276379</title>
<polygon fill="#ffffff" stroke="transparent" points="492.5,-400.4 263.5,-400.4 263.5,-254.4 492.5,-254.4 492.5,-400.4"/>
<text text-anchor="start" x="269" y="-382.8" font-family="Times New Roman,serif" font-size="14.00">(C)Pedido</text>
<text text-anchor="start" x="269" y="-358.8" font-family="Times New Roman,serif" font-size="14.00">&#45; &#160;&#160;id: int [1]</text>
<text text-anchor="start" x="269" y="-334.8" font-family="Times New Roman,serif" font-size="14.00">&#45; &#160;&#160;idUsuario: int [1]</text>
<text text-anchor="start" x="268.54" y="-310.8" font-family="Times New Roman,serif" font-size="14.00">&#45; &#160;&#160;produtos: ArrayList&lt;Produto&gt; [0..*]</text>
<text text-anchor="start" x="269" y="-286.8" font-family="Times New Roman,serif" font-size="14.00">&#45; &#160;&#160;total: float [1]</text>
<text text-anchor="start" x="269" y="-262.8" font-family="Times New Roman,serif" font-size="14.00">&#45; printaProdutos(): String</text>
<polygon fill="black" stroke="black" points="264,-375.4 264,-375.4 493,-375.4 493,-375.4 264,-375.4"/>
<polygon fill="black" stroke="black" points="264,-279.4 264,-279.4 493,-279.4 493,-279.4 264,-279.4"/>
<polygon fill="none" stroke="black" points="263.5,-254.4 263.5,-400.4 492.5,-400.4 492.5,-254.4 263.5,-254.4"/>
</g>
<!-- Pedido1908276379&#45;&gt;Produto1355179737 -->
<g id="edge4" class="edge">
<title>Pedido1908276379&#45;&gt;Produto1355179737</title>
<path fill="none" stroke="black" d="M304.38,-254.19C277.06,-227.39 245.93,-196.85 217.99,-169.45"/>
<polygon fill="black" stroke="black" points="220.17,-166.68 210.58,-162.18 215.27,-171.68 220.17,-166.68"/>
<text text-anchor="middle" x="310.5" y="-223.8" font-family="Times New Roman,serif" font-size="14.00">produtos</text>
<text text-anchor="middle" x="310.5" y="-207" font-family="Times New Roman,serif" font-size="14.00">[0..*]</text>
</g>
<!-- Loja2374170 -->
<g id="node4" class="node">
<title>Loja2374170</title>
<polygon fill="#ffffff" stroke="transparent" points="264.5,-662.8 35.5,-662.8 35.5,-492.8 264.5,-492.8 264.5,-662.8"/>
<text text-anchor="start" x="41" y="-645.2" font-family="Times New Roman,serif" font-size="14.00">(C)Loja</text>
<text text-anchor="start" x="41" y="-621.2" font-family="Times New Roman,serif" font-size="14.00">&#45; &#160;&#160;despesas: float [1]</text>
<text text-anchor="start" x="41" y="-597.2" font-family="Times New Roman,serif" font-size="14.00">&#45; &#160;&#160;lucro: float [1]</text>
<text text-anchor="start" x="41" y="-573.2" font-family="Times New Roman,serif" font-size="14.00">&#45; &#160;&#160;pedidos: ArrayList&lt;Pedido&gt; [0..*]</text>
<text text-anchor="start" x="40.54" y="-549.2" font-family="Times New Roman,serif" font-size="14.00">&#45; &#160;&#160;produtos: ArrayList&lt;Produto&gt; [0..*]</text>
<text text-anchor="start" x="41" y="-525.2" font-family="Times New Roman,serif" font-size="14.00">&#45; &#160;&#160;totalVendas: int [1]</text>
<text text-anchor="start" x="41" y="-501.2" font-family="Times New Roman,serif" font-size="14.00">&#45; &#160;&#160;usuarios: ArrayList&lt;Usuario&gt; [0..*]</text>
<polygon fill="black" stroke="black" points="36,-637.8 36,-637.8 265,-637.8 265,-637.8 36,-637.8"/>
<polygon fill="none" stroke="black" points="35.5,-492.8 35.5,-662.8 264.5,-662.8 264.5,-492.8 35.5,-492.8"/>
</g>
<!-- Loja2374170&#45;&gt;Produto1355179737 -->
<g id="edge2" class="edge">
<title>Loja2374170&#45;&gt;Produto1355179737</title>
<path fill="none" stroke="black" d="M61.88,-492.44C29.23,-461.18 0,-433.2 0,-433.2 0,-433.2 0,-246.4 0,-246.4 0,-246.4 33.24,-208.46 66.97,-169.95"/>
<polygon fill="black" stroke="black" points="69.76,-172.08 73.72,-162.25 64.49,-167.46 69.76,-172.08"/>
<text text-anchor="middle" x="24.5" y="-331.6" font-family="Times New Roman,serif" font-size="14.00">produtos</text>
<text text-anchor="middle" x="24.5" y="-314.8" font-family="Times New Roman,serif" font-size="14.00">[0..*]</text>
</g>
<!-- Loja2374170&#45;&gt;Usuario1531808526 -->
<g id="edge3" class="edge">
<title>Loja2374170&#45;&gt;Usuario1531808526</title>
<path fill="none" stroke="black" d="M150,-492.7C150,-466.36 150,-437.32 150,-411.08"/>
<polygon fill="black" stroke="black" points="153.5,-410.79 150,-400.79 146.5,-410.79 153.5,-410.79"/>
<text text-anchor="middle" x="173.33" y="-462.2" font-family="Times New Roman,serif" font-size="14.00">usuarios</text>
<text text-anchor="middle" x="173.33" y="-445.4" font-family="Times New Roman,serif" font-size="14.00">[0..*]</text>
</g>
<!-- Loja2374170&#45;&gt;Pedido1908276379 -->
<g id="edge1" class="edge">
<title>Loja2374170&#45;&gt;Pedido1908276379</title>
<path fill="none" stroke="black" d="M227.19,-492.7C252.22,-465.43 279.91,-435.26 304.66,-408.3"/>
<polygon fill="black" stroke="black" points="307.37,-410.52 311.56,-400.79 302.21,-405.79 307.37,-410.52"/>
<text text-anchor="middle" x="291.77" y="-462.2" font-family="Times New Roman,serif" font-size="14.00">pedidos</text>
<text text-anchor="middle" x="291.77" y="-445.4" font-family="Times New Roman,serif" font-size="14.00">[0..*]</text>
</g>
</g>
</svg>
